<svg width="117" height="29" viewBox="0 0 117 29" fill="none" xmlns="http://www.w3.org/2000/svg">
<path d="M13.784 28.42C9.388 28.42 6.042 27.3 3.746 25.06C1.45 22.82 0.302 19.334 0.302 14.602C0.302 9.59 1.45 5.992 3.746 3.808C6.042 1.624 9.388 0.531998 13.784 0.531998C18.18 0.531998 21.526 1.624 23.822 3.808C26.118 5.992 27.266 9.59 27.266 14.602C27.266 19.334 26.118 22.82 23.822 25.06C21.526 27.3 18.18 28.42 13.784 28.42ZM13.784 22.666C16.052 22.666 17.704 22.022 18.74 20.734C19.804 19.418 20.336 17.374 20.336 14.602C20.336 11.578 19.804 9.45 18.74 8.218C17.704 6.958 16.052 6.328 13.784 6.328C11.488 6.328 9.808 6.958 8.744 8.218C7.708 9.45 7.19 11.578 7.19 14.602C7.19 17.374 7.708 19.418 8.744 20.734C9.808 22.022 11.488 22.666 13.784 22.666ZM30.7143 28V8.092H37.0143L37.2243 9.814C38.0363 9.254 39.0583 8.764 40.2903 8.344C41.5223 7.896 42.8383 7.672 44.2383 7.672C46.8143 7.672 48.6903 8.288 49.8663 9.52C51.0423 10.752 51.6303 12.656 51.6303 15.232V28H44.8683V15.778C44.8683 14.658 44.6303 13.86 44.1543 13.384C43.6783 12.908 42.8243 12.67 41.5923 12.67C40.8643 12.67 40.1223 12.838 39.3663 13.174C38.6103 13.51 37.9803 13.93 37.4763 14.434V28H30.7143ZM55.6928 28V8.092H61.9928L62.2028 9.814C63.0148 9.254 64.0368 8.764 65.2688 8.344C66.5008 7.896 67.8168 7.672 69.2168 7.672C71.7928 7.672 73.6688 8.288 74.8448 9.52C76.0208 10.752 76.6088 12.656 76.6088 15.232V28H69.8468V15.778C69.8468 14.658 69.6088 13.86 69.1328 13.384C68.6568 12.908 67.8028 12.67 66.5708 12.67C65.8428 12.67 65.1008 12.838 64.3448 13.174C63.5888 13.51 62.9588 13.93 62.4548 14.434V28H55.6928ZM86.2721 28.42C85.0121 28.42 83.8361 28.196 82.7441 27.748C81.6801 27.3 80.8261 26.614 80.1821 25.69C79.5381 24.738 79.2161 23.562 79.2161 22.162C79.2161 20.118 79.9021 18.522 81.2741 17.374C82.6741 16.198 84.7601 15.61 87.5321 15.61H93.0761V15.148C93.0761 14.14 92.7401 13.426 92.0681 13.006C91.3961 12.558 90.1361 12.334 88.2881 12.334C86.0201 12.334 83.7941 12.684 81.6101 13.384V9.016C82.5901 8.624 83.7801 8.302 85.1801 8.05C86.6081 7.798 88.1061 7.672 89.6741 7.672C92.7541 7.672 95.1621 8.302 96.8981 9.562C98.6621 10.822 99.5441 12.824 99.5441 15.568V28H93.6221L93.2861 26.32C92.5581 26.992 91.6201 27.51 90.4721 27.874C89.3521 28.238 87.9521 28.42 86.2721 28.42ZM88.4141 24.262C89.4781 24.262 90.4021 24.08 91.1861 23.716C91.9701 23.352 92.6001 22.89 93.0761 22.33V19.516H88.2881C86.3001 19.516 85.3061 20.314 85.3061 21.91C85.3061 22.638 85.5581 23.212 86.0621 23.632C86.5661 24.052 87.3501 24.262 88.4141 24.262ZM111.789 28.42C109.325 28.42 107.505 27.79 106.329 26.53C105.181 25.27 104.607 23.534 104.607 21.322V13.216H101.919V8.092H104.607V3.934L111.369 2.128V8.092H116.199L115.905 13.216H111.369V20.86C111.369 21.812 111.607 22.484 112.083 22.876C112.559 23.24 113.273 23.422 114.225 23.422C115.037 23.422 115.863 23.282 116.703 23.002V27.58C115.387 28.14 113.749 28.42 111.789 28.42Z" fill="var(--kinfw-white-color)"/>
</svg>
